<svg width="12" height="15" viewBox="0 0 12 15" fill="none" xmlns="http://www.w3.org/2000/svg">
<path d="M2.32013 9.23486L2.32012 9.23487L6.15625 13.7591L9.99126 9.23606C9.99287 9.23399 10.0008 9.22401 10.0168 9.20332L10.0737 9.12946L10.1004 9.09473L10.1005 9.09438L10.1504 9.0286C10.804 8.16673 11.1573 7.11449 11.1563 6.03282L2.32013 9.23486ZM2.32013 9.23486L2.31791 9.23228M2.32013 9.23486L2.31791 9.23228M2.31791 9.23228C2.31975 9.23442 2.3194 9.23398 2.31616 9.22987C2.31279 9.22561 2.3063 9.2174 2.29592 9.20403C2.27945 9.18286 2.25922 9.15655 2.2392 9.13043L2.1858 9.06052L2.16873 9.0381L2.16403 9.03192L2.16282 9.03032L2.1626 9.03004M2.31791 9.23228L2.1626 9.03004M2.1626 9.03004L2.16252 9.02993L2.16249 9.02989M2.1626 9.03004L2.16249 9.02989M2.16249 9.02989C2.16247 9.02987 2.16245 9.02984 2.16243 9.02981C1.50846 8.16765 1.15504 7.11493 1.15625 6.03279C1.15782 4.70703 1.68517 3.43605 2.62262 2.49859C3.55993 1.56128 4.83071 1.03395 6.15625 1.03223C7.4818 1.03395 8.75257 1.56128 9.68989 2.49859C10.6273 3.43602 11.1547 4.70699 11.1563 6.03271L2.16249 9.02989ZM6.15625 8.53223L6.15688 8.53223C6.8195 8.5314 7.45474 8.26781 7.92329 7.79926C8.39183 7.33072 8.65543 6.69547 8.65625 6.03285V6.03223C8.65625 5.53777 8.50963 5.05442 8.23493 4.6433C7.96022 4.23218 7.56978 3.91175 7.11296 3.72253C6.65615 3.53331 6.15348 3.4838 5.66853 3.58026C5.18357 3.67673 4.73812 3.91483 4.38849 4.26446C4.03885 4.61409 3.80075 5.05955 3.70429 5.5445C3.60783 6.02945 3.65734 6.53212 3.84655 6.98894C4.03577 7.44575 4.35621 7.8362 4.76733 8.1109C5.17845 8.3856 5.6618 8.53223 6.15625 8.53223Z" stroke="black"/>
</svg>
