<svg width="12" height="13" viewBox="0 0 12 13" fill="none" xmlns="http://www.w3.org/2000/svg">
<path fill-rule="evenodd" clip-rule="evenodd" d="M1.33312 5.00065C1.33312 3.76297 1.82479 2.57599 2.69996 1.70082C3.57513 0.82565 4.76211 0.333984 5.99979 0.333984C7.23747 0.333984 8.42445 0.82565 9.29962 1.70082C10.1748 2.57599 10.6665 3.76297 10.6665 5.00065V7.50998L11.8811 9.93932C11.937 10.0511 11.9634 10.1754 11.9578 10.3003C11.9522 10.4252 11.9148 10.5465 11.849 10.6529C11.7833 10.7592 11.6915 10.847 11.5823 10.9079C11.4731 10.9687 11.3501 11.0007 11.2251 11.0007H8.58246C8.43417 11.5728 8.10008 12.0795 7.63263 12.4413C7.16519 12.803 6.59086 12.9993 5.99979 12.9993C5.40873 12.9993 4.83439 12.803 4.36695 12.4413C3.8995 12.0795 3.56542 11.5728 3.41712 11.0007H0.774458C0.649443 11.0007 0.526498 10.9687 0.417302 10.9079C0.308106 10.847 0.216283 10.7592 0.150554 10.6529C0.0848257 10.5465 0.0473741 10.4252 0.0417565 10.3003C0.0361389 10.1754 0.0625418 10.0511 0.118457 9.93932L1.33312 7.50998V5.00065ZM4.84512 11.0007C4.96215 11.2033 5.13047 11.3716 5.33315 11.4886C5.53584 11.6057 5.76575 11.6673 5.99979 11.6673C6.23383 11.6673 6.46374 11.6057 6.66643 11.4886C6.86911 11.3716 7.03743 11.2033 7.15446 11.0007H4.84512ZM5.99979 1.66732C5.11574 1.66732 4.26789 2.01851 3.64277 2.64363C3.01765 3.26875 2.66646 4.1166 2.66646 5.00065V7.50998C2.66644 7.71687 2.61828 7.92092 2.52579 8.10598L1.74579 9.66732H10.2545L9.47446 8.10598C9.38173 7.92098 9.33334 7.71693 9.33312 7.50998V5.00065C9.33312 4.1166 8.98193 3.26875 8.35681 2.64363C7.73169 2.01851 6.88385 1.66732 5.99979 1.66732Z" fill="black"/>
</svg>
