<svg width="15" height="11" viewBox="0 0 15 11" fill="none" xmlns="http://www.w3.org/2000/svg">
<path d="M3.03125 0.208984C2.36821 0.208984 1.73232 0.472376 1.26348 0.941217C0.794642 1.41006 0.53125 2.04594 0.53125 2.70898V3.20898H14.5312V2.70898C14.5312 2.04594 14.2679 1.41006 13.799 0.941217C13.3302 0.472376 12.6943 0.208984 12.0312 0.208984H3.03125ZM14.5312 4.20898H0.53125V7.70898C0.53125 8.37203 0.794642 9.00791 1.26348 9.47675C1.73232 9.94559 2.36821 10.209 3.03125 10.209H12.0312C12.6943 10.209 13.3302 9.94559 13.799 9.47675C14.2679 9.00791 14.5312 8.37203 14.5312 7.70898V4.20898ZM10.0312 7.20898H12.0312C12.1639 7.20898 12.291 7.26166 12.3848 7.35543C12.4786 7.4492 12.5312 7.57638 12.5312 7.70898C12.5312 7.84159 12.4786 7.96877 12.3848 8.06254C12.291 8.15631 12.1639 8.20898 12.0312 8.20898H10.0312C9.89864 8.20898 9.77146 8.15631 9.6777 8.06254C9.58393 7.96877 9.53125 7.84159 9.53125 7.70898C9.53125 7.57638 9.58393 7.4492 9.6777 7.35543C9.77146 7.26166 9.89864 7.20898 10.0312 7.20898Z" fill="black"/>
</svg>
