<svg width="13" height="13" viewBox="0 0 13 13" fill="none" xmlns="http://www.w3.org/2000/svg">
<path d="M3.98958 2.99674C3.98958 2.42211 4.21786 1.87101 4.62419 1.46468C5.03051 1.05835 5.58161 0.830078 6.15625 0.830078C6.73089 0.830078 7.28199 1.05835 7.68831 1.46468C8.09464 1.87101 8.32292 2.42211 8.32292 2.99674C8.32292 3.57138 8.09464 4.12248 7.68831 4.52881C7.28199 4.93514 6.73089 5.16341 6.15625 5.16341C5.58161 5.16341 5.03051 4.93514 4.62419 4.52881C4.21786 4.12248 3.98958 3.57138 3.98958 2.99674ZM1.48611 8.32661C2.01747 7.79526 2.73814 7.49675 3.48958 7.49675H8.82292C9.57436 7.49675 10.295 7.79526 10.8264 8.32661C11.3577 8.85796 11.6562 9.57863 11.6562 10.3301C11.6562 10.7279 11.4982 11.1094 11.2169 11.3907C10.9356 11.672 10.5541 11.8301 10.1562 11.8301H2.15625C1.75843 11.8301 1.37689 11.672 1.09559 11.3907C0.814285 11.1094 0.65625 10.7279 0.65625 10.3301C0.65625 9.57863 0.954761 8.85796 1.48611 8.32661Z" stroke="black"/>
</svg>
