<svg width="32" height="32" viewBox="0 0 32 32" fill="none" xmlns="http://www.w3.org/2000/svg">
<circle cx="16" cy="16" r="16" fill="white"/>
<path d="M19.7273 7.68725C19.8176 7.59178 19.8881 7.47947 19.9349 7.35674C19.9817 7.23401 20.0039 7.10327 20.0002 6.97196C19.9965 6.84066 19.9669 6.71138 19.9133 6.59149C19.8596 6.47161 19.7828 6.36347 19.6873 6.27325C19.5919 6.18303 19.4796 6.1125 19.3568 6.06569C19.2341 6.01887 19.1034 5.99669 18.9721 6.0004C18.8408 6.00411 18.7115 6.03365 18.5916 6.08733C18.4717 6.14101 18.3636 6.21778 18.2733 6.31325L9.77334 15.3132C9.59781 15.4989 9.5 15.7447 9.5 16.0002C9.5 16.2558 9.59781 16.5016 9.77334 16.6872L18.2733 25.6882C18.363 25.7858 18.4711 25.8646 18.5914 25.92C18.7117 25.9754 18.8419 26.0064 18.9743 26.0111C19.1067 26.0158 19.2387 25.9942 19.3626 25.9474C19.4866 25.9007 19.6 25.8298 19.6963 25.7388C19.7927 25.6479 19.8699 25.5387 19.9237 25.4176C19.9775 25.2965 20.0067 25.166 20.0095 25.0335C20.0124 24.9011 19.989 24.7694 19.9405 24.6461C19.8921 24.5228 19.8196 24.4103 19.7273 24.3153L11.8753 16.0002L19.7273 7.68725Z" fill="black"/>
</svg>
