<svg width="32" height="32" viewBox="0 0 32 32" fill="none" xmlns="http://www.w3.org/2000/svg">
<circle cx="16" cy="16" r="16" fill="white"/>
<path d="M19.75 13H21.625C22.1223 13 22.5992 13.1975 22.9508 13.5492C23.3025 13.9008 23.5 14.3777 23.5 14.875V23.875C23.5 24.3723 23.3025 24.8492 22.9508 25.2008C22.5992 25.5525 22.1223 25.75 21.625 25.75H10.375C9.87772 25.75 9.40081 25.5525 9.04917 25.2008C8.69754 24.8492 8.5 24.3723 8.5 23.875V14.875C8.5 14.3777 8.69754 13.9008 9.04917 13.5492C9.40081 13.1975 9.87772 13 10.375 13H12.25M19.75 10L16 6.25M16 6.25L12.25 10M16 6.25V19.0469" stroke="black" stroke-width="1.5" stroke-linecap="round" stroke-linejoin="round"/>
</svg>
