<svg width="32" height="32" viewBox="0 0 32 32" fill="none" xmlns="http://www.w3.org/2000/svg">
<circle cx="16" cy="16" r="16" fill="#FCFCFC"/>
<g clip-path="url(#clip0_428_2705)">
<path d="M8.5 9C8.36739 9 8.24021 9.05268 8.14645 9.14645C8.05268 9.24021 8 9.36739 8 9.5C8 9.63261 8.05268 9.75979 8.14645 9.85355C8.24021 9.94732 8.36739 10 8.5 10H9.61L10.011 11.607L11.509 19.592C11.5304 19.7066 11.5913 19.8101 11.6809 19.8846C11.7706 19.9591 11.8834 19.9999 12 20H13C12.4696 20 11.9609 20.2107 11.5858 20.5858C11.2107 20.9609 11 21.4696 11 22C11 22.5304 11.2107 23.0391 11.5858 23.4142C11.9609 23.7893 12.4696 24 13 24C13.5304 24 14.0391 23.7893 14.4142 23.4142C14.7893 23.0391 15 22.5304 15 22C15 21.4696 14.7893 20.9609 14.4142 20.5858C14.0391 20.2107 13.5304 20 13 20H20C19.4696 20 18.9609 20.2107 18.5858 20.5858C18.2107 20.9609 18 21.4696 18 22C18 22.5304 18.2107 23.0391 18.5858 23.4142C18.9609 23.7893 19.4696 24 20 24C20.5304 24 21.0391 23.7893 21.4142 23.4142C21.7893 23.0391 22 22.5304 22 22C22 21.4696 21.7893 20.9609 21.4142 20.5858C21.0391 20.2107 20.5304 20 20 20H21C21.1166 19.9999 21.2294 19.9591 21.3191 19.8846C21.4087 19.8101 21.4696 19.7066 21.491 19.592L22.991 11.592C23.0045 11.5198 23.002 11.4456 22.9835 11.3745C22.9651 11.3035 22.9313 11.2373 22.8844 11.1808C22.8375 11.1243 22.7788 11.0788 22.7124 11.0476C22.6459 11.0163 22.5734 11.0001 22.5 11H10.89L10.485 9.379C10.458 9.27078 10.3956 9.1747 10.3077 9.10602C10.2199 9.03735 10.1115 9.00003 10 9H8.5ZM14 22C14 22.2652 13.8946 22.5196 13.7071 22.7071C13.5196 22.8946 13.2652 23 13 23C12.7348 23 12.4804 22.8946 12.2929 22.7071C12.1054 22.5196 12 22.2652 12 22C12 21.7348 12.1054 21.4804 12.2929 21.2929C12.4804 21.1054 12.7348 21 13 21C13.2652 21 13.5196 21.1054 13.7071 21.2929C13.8946 21.4804 14 21.7348 14 22ZM21 22C21 22.2652 20.8946 22.5196 20.7071 22.7071C20.5196 22.8946 20.2652 23 20 23C19.7348 23 19.4804 22.8946 19.2929 22.7071C19.1054 22.5196 19 22.2652 19 22C19 21.7348 19.1054 21.4804 19.2929 21.2929C19.4804 21.1054 19.7348 21 20 21C20.2652 21 20.5196 21.1054 20.7071 21.2929C20.8946 21.4804 21 21.7348 21 22ZM17 13.5V15H18.5C18.6326 15 18.7598 15.0527 18.8536 15.1464C18.9473 15.2402 19 15.3674 19 15.5C19 15.6326 18.9473 15.7598 18.8536 15.8536C18.7598 15.9473 18.6326 16 18.5 16H17V17.5C17 17.6326 16.9473 17.7598 16.8536 17.8536C16.7598 17.9473 16.6326 18 16.5 18C16.3674 18 16.2402 17.9473 16.1464 17.8536C16.0527 17.7598 16 17.6326 16 17.5V16H14.5C14.3674 16 14.2402 15.9473 14.1464 15.8536C14.0527 15.7598 14 15.6326 14 15.5C14 15.3674 14.0527 15.2402 14.1464 15.1464C14.2402 15.0527 14.3674 15 14.5 15H16V13.5C16 13.3674 16.0527 13.2402 16.1464 13.1464C16.2402 13.0527 16.3674 13 16.5 13C16.6326 13 16.7598 13.0527 16.8536 13.1464C16.9473 13.2402 17 13.3674 17 13.5Z" fill="black"/>
</g>
<defs>
<clipPath id="clip0_428_2705">
<rect width="16" height="16" fill="white" transform="translate(8 8)"/>
</clipPath>
</defs>
</svg>
