<svg width="24" height="24" viewBox="0 0 24 24" fill="none" xmlns="http://www.w3.org/2000/svg">
<path d="M10.5005 18.75H21.0005V20.25H10.5005V18.75ZM5.37805 19.5L3.44305 21.435L4.50055 22.5L7.50055 19.5L4.50055 16.5L3.43555 17.5575L5.37805 19.5ZM10.5005 11.25H21.0005V12.75H10.5005V11.25ZM5.37805 12L3.44305 13.935L4.50055 15L7.50055 12L4.50055 9L3.43555 10.0575L5.37805 12ZM10.5005 3.75H21.0005V5.25H10.5005V3.75ZM5.37805 4.5L3.44305 6.435L4.50055 7.5L7.50055 4.5L4.50055 1.5L3.43555 2.5575L5.37805 4.5Z" fill="black"/>
</svg>
