<svg width="42" height="42" viewBox="0 0 42 42" fill="none" xmlns="http://www.w3.org/2000/svg">
<rect width="42" height="42" rx="21" fill="#FEEBF7"/>
<path d="M30.25 20.9999H17.895M13.534 20.9999H11.75M13.534 20.9999C13.534 20.4217 13.7637 19.8672 14.1725 19.4584C14.5813 19.0496 15.1358 18.8199 15.714 18.8199C16.2922 18.8199 16.8467 19.0496 17.2555 19.4584C17.6643 19.8672 17.894 20.4217 17.894 20.9999C17.894 21.5781 17.6643 22.1326 17.2555 22.5414C16.8467 22.9502 16.2922 23.1799 15.714 23.1799C15.1358 23.1799 14.5813 22.9502 14.1725 22.5414C13.7637 22.1326 13.534 21.5781 13.534 20.9999ZM30.25 27.6069H24.502M24.502 27.6069C24.502 28.1852 24.2718 28.7403 23.8628 29.1492C23.4539 29.5582 22.8993 29.7879 22.321 29.7879C21.7428 29.7879 21.1883 29.5572 20.7795 29.1484C20.3707 28.7396 20.141 28.1851 20.141 27.6069M24.502 27.6069C24.502 27.0286 24.2718 26.4745 23.8628 26.0655C23.4539 25.6566 22.8993 25.4269 22.321 25.4269C21.7428 25.4269 21.1883 25.6566 20.7795 26.0654C20.3707 26.4742 20.141 27.0287 20.141 27.6069M20.141 27.6069H11.75M30.25 14.3929H27.145M22.784 14.3929H11.75M22.784 14.3929C22.784 13.8147 23.0137 13.2602 23.4225 12.8514C23.8313 12.4426 24.3858 12.2129 24.964 12.2129C25.2503 12.2129 25.5338 12.2693 25.7983 12.3788C26.0627 12.4884 26.3031 12.649 26.5055 12.8514C26.7079 13.0538 26.8685 13.2942 26.9781 13.5586C27.0876 13.8231 27.144 14.1066 27.144 14.3929C27.144 14.6792 27.0876 14.9627 26.9781 15.2271C26.8685 15.4916 26.7079 15.732 26.5055 15.9344C26.3031 16.1368 26.0627 16.2974 25.7983 16.4069C25.5338 16.5165 25.2503 16.5729 24.964 16.5729C24.3858 16.5729 23.8313 16.3432 23.4225 15.9344C23.0137 15.5256 22.784 14.9711 22.784 14.3929Z" stroke="#FF1768" stroke-width="1.5" stroke-miterlimit="10" stroke-linecap="round"/>
</svg>
