<svg width="33" height="33" viewBox="0 0 33 33" fill="none" xmlns="http://www.w3.org/2000/svg">
<ellipse cx="16.1618" cy="16.2928" rx="16.1032" ry="16.1951" fill="#FCFCFC" fill-opacity="0.988235"/>
<path d="M16.2371 22.7317L16.1627 22.8132L16.081 22.7317C12.5506 19.2205 10.2169 16.8986 10.2169 14.5442C10.2169 12.9149 11.3318 11.6928 12.8182 11.6928C13.9628 11.6928 15.0776 12.5075 15.4715 13.6155H16.8539C17.2478 12.5075 18.3627 11.6928 19.5072 11.6928C20.9937 11.6928 22.1085 12.9149 22.1085 14.5442C22.1085 16.8986 19.7748 19.2205 16.2371 22.7317ZM19.5072 10.0635C18.214 10.0635 16.9728 10.7234 16.1627 11.758C15.3526 10.7234 14.1114 10.0635 12.8182 10.0635C10.5291 10.0635 8.73047 12.0269 8.73047 14.5442C8.73047 17.6155 11.2574 20.1329 15.0851 23.9374L16.1627 25.0128L17.2404 23.9374C21.068 20.1329 23.595 17.6155 23.595 14.5442C23.595 12.0269 21.7964 10.0635 19.5072 10.0635Z" fill="black"/>
</svg>
