<svg width="21" height="22" viewBox="0 0 21 22" fill="none" xmlns="http://www.w3.org/2000/svg">
<path d="M10.605 18.2956L10.5 18.4101L10.3845 18.2956C5.397 13.3632 2.1 10.1016 2.1 6.79428C2.1 4.50545 3.675 2.78883 5.775 2.78883C7.392 2.78883 8.967 3.93324 9.5235 5.48965H11.4765C12.033 3.93324 13.608 2.78883 15.225 2.78883C17.325 2.78883 18.9 4.50545 18.9 6.79428C18.9 10.1016 15.603 13.3632 10.605 18.2956ZM15.225 0.5C13.398 0.5 11.6445 1.42698 10.5 2.88038C9.3555 1.42698 7.602 0.5 5.775 0.5C2.541 0.5 0 3.25804 0 6.79428C0 11.1087 3.57 14.645 8.9775 19.9894L10.5 21.5L12.0225 19.9894C17.43 14.645 21 11.1087 21 6.79428C21 3.25804 18.459 0.5 15.225 0.5Z" fill="black"/>
</svg>
