<svg width="24" height="24" viewBox="0 0 24 24" fill="none" xmlns="http://www.w3.org/2000/svg">
<path d="M19.6498 6.59998L13.3499 2.40002C12.9605 2.14038 12.4868 2 12 2C11.5132 2 11.0392 2.14038 10.6498 2.40002L4.34995 6.59998C3.93078 6.87942 3.59055 7.24176 3.35623 7.65833C3.12191 8.07489 3 8.53426 3 9V20C3 20.5304 3.23695 21.0391 3.65891 21.4142C4.08086 21.7893 4.65326 22 5.25 22H18.75C19.3467 22 19.9189 21.7893 20.3408 21.4142C20.7628 21.0391 21 20.5304 21 20V9C21 8.53426 20.8778 8.07489 20.6435 7.65833C20.4092 7.24176 20.0689 6.87942 19.6498 6.59998V6.59998Z" stroke="black" stroke-width="2.02992" stroke-miterlimit="10"/>
<path d="M12 13V19" stroke="black" stroke-width="2.02992" stroke-miterlimit="10"/>
</svg>
