<svg width="24" height="24" viewBox="0 0 24 24" fill="none" xmlns="http://www.w3.org/2000/svg">
<path d="M6.42846 2.41331C6.55453 2.26284 6.61659 2.06894 6.60129 1.87322C6.586 1.67751 6.49459 1.49559 6.34667 1.36653C6.19876 1.23746 6.00613 1.17153 5.81015 1.1829C5.61417 1.19426 5.43046 1.28202 5.29846 1.42731L4.00646 2.90731C3.27384 3.74688 2.85969 4.81728 2.83646 5.93131L2.77946 8.65031C2.77742 8.74881 2.79481 8.84673 2.83062 8.93851C2.86643 9.03028 2.91996 9.1141 2.98817 9.18518C3.05637 9.25627 3.13791 9.31322 3.22812 9.35279C3.31834 9.39236 3.41547 9.41378 3.51396 9.41581C3.61245 9.41785 3.71038 9.40047 3.80215 9.36466C3.89392 9.32885 3.97774 9.27531 4.04883 9.2071C4.11991 9.1389 4.17686 9.05736 4.21644 8.96715C4.25601 8.87693 4.27742 8.77981 4.27946 8.68131L4.33546 5.96331C4.3515 5.20104 4.63503 4.46867 5.13646 3.89431L6.42846 2.41331Z" fill="black"/>
<path fill-rule="evenodd" clip-rule="evenodd" d="M6.23793 7.7C6.30508 6.63014 6.77745 5.62608 7.55885 4.89224C8.34025 4.15839 9.37196 3.74993 10.4439 3.75H11.0009V3C11.0009 2.73478 11.1063 2.48043 11.2938 2.29289C11.4814 2.10536 11.7357 2 12.0009 2C12.2661 2 12.5205 2.10536 12.708 2.29289C12.8956 2.48043 13.0009 2.73478 13.0009 3V3.75H13.5579C14.6299 3.74993 15.6616 4.15839 16.443 4.89224C17.2244 5.62608 17.6968 6.63014 17.7639 7.7L17.9849 11.234C18.0691 12.5815 18.5216 13.88 19.2929 14.988C19.4523 15.2171 19.5497 15.4835 19.5756 15.7613C19.6015 16.0392 19.5551 16.319 19.4408 16.5736C19.3266 16.8281 19.1484 17.0488 18.9236 17.2141C18.6988 17.3795 18.435 17.4838 18.1579 17.517L14.7509 17.925V19C14.7509 19.7293 14.4612 20.4288 13.9455 20.9445C13.4297 21.4603 12.7303 21.75 12.0009 21.75C11.2716 21.75 10.5721 21.4603 10.0564 20.9445C9.54066 20.4288 9.25093 19.7293 9.25093 19V17.925L5.84393 17.516C5.56702 17.4827 5.30343 17.3784 5.07877 17.2131C4.85411 17.0478 4.67601 16.8273 4.56178 16.5729C4.44755 16.3184 4.40106 16.0388 4.42685 15.7611C4.45263 15.4834 4.5498 15.217 4.70893 14.988C5.48023 13.8799 5.93265 12.5814 6.01693 11.234L6.23793 7.7ZM10.4439 5.25C9.7535 5.24992 9.089 5.51297 8.58571 5.98561C8.08241 6.45824 7.77817 7.10493 7.73493 7.794L7.51493 11.328C7.41327 12.949 6.86884 14.511 5.94093 15.844C5.92939 15.8606 5.92234 15.8798 5.92046 15.8999C5.91858 15.92 5.92193 15.9403 5.93018 15.9587C5.93843 15.9771 5.95131 15.9931 5.96756 16.005C5.98382 16.017 6.00289 16.0246 6.02293 16.027L9.75993 16.476C11.2489 16.654 12.7529 16.654 14.2419 16.476L17.9789 16.027C17.999 16.0246 18.018 16.017 18.0343 16.005C18.0505 15.9931 18.0634 15.9771 18.0717 15.9587C18.0799 15.9403 18.0833 15.92 18.0814 15.8999C18.0795 15.8798 18.0725 15.8606 18.0609 15.844C17.1333 14.5109 16.5892 12.9489 16.4879 11.328L16.2669 7.794C16.2237 7.10493 15.9194 6.45824 15.4161 5.98561C14.9129 5.51297 14.2484 5.24992 13.5579 5.25H10.4439ZM12.0009 20.25C11.3109 20.25 10.7509 19.69 10.7509 19V18.25H13.2509V19C13.2509 19.69 12.6909 20.25 12.0009 20.25Z" fill="black"/>
<path d="M17.6435 1.35471C17.4937 1.48548 17.402 1.6704 17.3885 1.8688C17.3749 2.0672 17.4408 2.26285 17.5715 2.41271L18.8635 3.89271C19.3648 4.46747 19.648 5.20022 19.6635 5.96271L19.7205 8.67971C19.7246 8.87862 19.8076 9.06776 19.9511 9.2055C20.0947 9.34325 20.2871 9.41832 20.486 9.41421C20.6849 9.4101 20.8741 9.32714 21.0118 9.18358C21.1495 9.04002 21.2246 8.84762 21.2205 8.64871L21.1635 5.93071C21.1403 4.81668 20.7261 3.74628 19.9935 2.90671L18.7015 1.42671C18.5707 1.2769 18.3858 1.18516 18.1874 1.17165C17.989 1.15815 17.7934 1.224 17.6435 1.35471Z" fill="black"/>
</svg>
