<svg width="48" height="42" viewBox="0 0 48 42" fill="none" xmlns="http://www.w3.org/2000/svg">
<path d="M34 29.954L28.4133 24.3673C29.7558 22.7556 30.4253 20.6884 30.2825 18.5956C30.1396 16.5029 29.1954 14.5458 27.6464 13.1315C26.0973 11.7171 24.0626 10.9545 21.9655 11.0021C19.8685 11.0498 17.8705 11.9041 16.3873 13.3873C14.9041 14.8705 14.0498 16.8685 14.0021 18.9655C13.9545 21.0626 14.7171 23.0973 16.1315 24.6464C17.5458 26.1954 19.5029 27.1396 21.5956 27.2825C23.6884 27.4253 25.7556 26.7558 27.3673 25.4133L32.954 31L34 29.954ZM15.506 19.1638C15.506 17.847 15.8965 16.5598 16.628 15.4649C17.3596 14.37 18.3994 13.5167 19.616 13.0128C20.8325 12.5089 22.1712 12.377 23.4627 12.6339C24.7542 12.8908 25.9405 13.5249 26.8716 14.456C27.8028 15.3871 28.4369 16.5734 28.6937 17.8649C28.9506 19.1564 28.8188 20.4951 28.3149 21.7117C27.811 22.9282 26.9576 23.9681 25.8627 24.6996C24.7678 25.4312 23.4806 25.8217 22.1638 25.8217C20.3987 25.8197 18.7063 25.1176 17.4582 23.8695C16.21 22.6213 15.5079 20.929 15.506 19.1638Z" fill="#FF1768"/>
</svg>
